<?xml version="1.0" encoding="utf-8"?>
<!-- Generator: Adobe Illustrator 22.0.0, SVG Export Plug-In . SVG Version: 6.00 Build 0)  -->
<svg version="1.1"
	 id="Bitcoin_Symbol_White" xmlns:cc="http://creativecommons.org/ns#" xmlns:dc="http://purl.org/dc/elements/1.1/" xmlns:rdf="http://www.w3.org/1999/02/22-rdf-syntax-ns#" xmlns:svg="http://www.w3.org/2000/svg"
	 xmlns="http://www.w3.org/2000/svg" xmlns:xlink="http://www.w3.org/1999/xlink" x="0px" y="0px" viewBox="0 0 12 16"
	 style="enable-background:new 0 0 12 16;" xml:space="preserve">
<style type="text/css">
	.st0{fill:#FFFFFF;}
</style>
<g id="dznak">
	<path id="dCombined-Shape" class="st0" d="M8.4,9.6l2.4-4.2C11.2,6.1,11.5,7,11.5,8c0,3-2.5,5.5-5.5,5.5S0.5,11,0.5,8S3,2.5,6,2.5
		c1.7,0,3.2,0.7,4.2,1.9L7.9,8.3l-1-1.7C6.8,6.4,6.5,6.3,6.3,6.4c0,0-0.1,0-0.1,0.1c0,0-0.1,0.1-0.1,0.1L4.6,9.1
		c-0.1,0.3,0,0.6,0.2,0.7c0.3,0.1,0.6,0,0.7-0.2l1-1.7l1,1.7c0,0,0,0.1,0.1,0.1c0.1,0.1,0.2,0.1,0.3,0.1c0.1,0,0.2,0,0.2,0
		c0,0,0,0,0,0l0,0C8.3,9.7,8.3,9.6,8.4,9.6z M4.7,6.4C4.5,6.3,4.2,6.4,4,6.6L2.6,9.1c-0.1,0.3,0,0.6,0.2,0.7c0.2,0.1,0.6,0,0.7-0.2
		l1.4-2.5C5,6.9,4.9,6.6,4.7,6.4L4.7,6.4z"/>
</g>
</svg>
